<svg xmlns="http://www.w3.org/2000/svg" width="16" height="16" viewBox="0 0 16 16" fill="none">
<path d="M3.33333 14.6666C2.96667 14.6666 2.65267 14.5362 2.39133 14.2753C2.13044 14.014 2 13.7 2 13.3333V3.99998C2 3.63331 2.13044 3.31954 2.39133 3.05865C2.65267 2.79731 2.96667 2.66665 3.33333 2.66665H4V1.98331C4 1.79442 4.06378 1.63887 4.19133 1.51665C4.31933 1.39442 4.47778 1.33331 4.66667 1.33331C4.85556 1.33331 5.014 1.39709 5.142 1.52465C5.26956 1.65265 5.33333 1.81109 5.33333 1.99998V2.66665H10.6667V1.98331C10.6667 1.79442 10.7307 1.63887 10.8587 1.51665C10.9862 1.39442 11.1444 1.33331 11.3333 1.33331C11.5222 1.33331 11.6804 1.39709 11.808 1.52465C11.936 1.65265 12 1.81109 12 1.99998V2.66665H12.6667C13.0333 2.66665 13.3473 2.79731 13.6087 3.05865C13.8696 3.31954 14 3.63331 14 3.99998V13.3333C14 13.7 13.8696 14.014 13.6087 14.2753C13.3473 14.5362 13.0333 14.6666 12.6667 14.6666H3.33333ZM3.33333 13.3333H12.6667V6.66665H3.33333V13.3333Z" fill="#171725"/>
</svg>