<svg width="17" height="16" viewBox="0 0 17 16" fill="none" xmlns="http://www.w3.org/2000/svg">
<path d="M8.49665 2.00001C8.31094 1.9991 8.12492 2.07512 7.99132 2.22802L3.3313 7.56135C3.08905 7.83861 3.11742 8.25977 3.39468 8.50203C3.67195 8.74429 4.0931 8.71591 4.33536 8.43865L7.83333 4.43526V13.3333C7.83333 13.7015 8.13181 14 8.5 14C8.86819 14 9.16667 13.7015 9.16667 13.3333V4.44665L12.6653 8.43936C12.9079 8.71628 13.3291 8.74406 13.606 8.50141C13.8829 8.25876 13.9107 7.83756 13.6681 7.56064L9.0517 2.2923C8.93176 2.11588 8.72941 2 8.5 2L8.49665 2.00001Z" fill="#FC5A5A"/>
</svg>
