<svg width="16" height="16" viewBox="0 0 16 16" fill="none" xmlns="http://www.w3.org/2000/svg">
<path d="M7.99665 14C7.81094 14.0009 7.62492 13.9249 7.49132 13.772L2.8313 8.43865C2.58905 8.16139 2.61742 7.74023 2.89468 7.49797C3.17195 7.25571 3.5931 7.28409 3.83536 7.56135L7.33333 11.5647V2.66667C7.33333 2.29848 7.63181 2 8 2C8.36819 2 8.66667 2.29848 8.66667 2.66667V11.5533L12.1653 7.56064C12.4079 7.28372 12.8291 7.25594 13.106 7.49859C13.3829 7.74124 13.4107 8.16244 13.1681 8.43936L8.5517 13.7077C8.43176 13.8841 8.22941 14 8 14L7.99665 14Z" fill="#29C184"/>
</svg>
